<svg xmlns="http://www.w3.org/2000/svg" xmlns:xlink="http://www.w3.org/1999/xlink" viewBox="0 0 2697.16 939.16"><defs><style>.cls-1{clip-path:url(#clip-path);}.cls-2{clip-path:url(#clip-path-2);}.cls-3{clip-path:url(#clip-path-3);}.cls-4{clip-path:url(#clip-path-4);}.cls-5{clip-path:url(#clip-path-5);}.cls-6{clip-path:url(#clip-path-6);}.cls-7{clip-path:url(#clip-path-7);}.cls-8{clip-path:url(#clip-path-8);}.cls-9{clip-path:url(#clip-path-9);}.cls-10{clip-path:url(#clip-path-10);}.cls-11{clip-path:url(#clip-path-11);}.cls-12{clip-path:url(#clip-path-12);}.cls-13{clip-path:url(#clip-path-13);}.cls-14{clip-path:url(#clip-path-14);}.cls-15{clip-path:url(#clip-path-15);}.cls-16{clip-path:url(#clip-path-16);}.cls-17{clip-path:url(#clip-path-17);}.cls-18{clip-path:url(#clip-path-18);}.cls-19{clip-path:url(#clip-path-19);}.cls-20{clip-path:url(#clip-path-20);}.cls-21{clip-path:url(#clip-path-21);}.cls-22{clip-path:url(#clip-path-22);}.cls-23{clip-path:url(#clip-path-23);}</style><clipPath id="clip-path"><path d="M2030,8.07c52.92,19.08,102.53,38.84,149.85,62.08,47.29,22.83,92.33,49,136.34,76.23s85.68,56.92,127.15,88c20.44,15.73,40.57,31.29,59.7,47.55l8.5,7.48c-14.55,13.23-29.18,26.52-44.47,39.09-32.29,27.5-66.07,53.63-101,79.37-34.95,25.41-70.44,50.42-107.62,73.85-37.09,23.73-75.71,45.81-116.27,68.29,46.35,1.39,92.81-4.9,138.27-15.56a742.87,742.87,0,0,0,132.32-45.72,858.09,858.09,0,0,0,123.26-67.64c19.51-13.24,38.91-26.85,57.42-41.66,17.67-15,35.23-29.67,52.49-45l51.19-45.37-51.26-47.48-13.11-12.14-15.88-15.41c-10.64-10.18-21.72-19.77-33-29a786.9,786.9,0,0,0-69.5-51.26,861.79,861.79,0,0,0-150.67-80.81C2311,31.32,2255.78,15,2199.2,6.45A562.22,562.22,0,0,0,2116,0a444.3,444.3,0,0,0-86,8.07"/></clipPath><clipPath id="clip-path-2"><polygon points="112.78 828.46 77.89 910.06 42.98 828.46 17.97 828.46 17.97 938.21 39.99 938.21 39.99 866.82 69.56 938.21 86.22 938.21 115.62 866.82 115.62 938.21 137.64 938.21 137.64 828.46 112.78 828.46"/></clipPath><clipPath id="clip-path-3"><path d="M274.91,853.77l15.88,45.91H259ZM262.16,828.3,222.71,938.21h23.1l7.25-20.91h43.7L304,938.21h23.26L287.8,828.3Z"/></clipPath><clipPath id="clip-path-4"><path d="M434.2,846.7h18.39q9,0,13.37,4.16c2.94,2.78,4.39,6.68,4.39,11.72s-1.45,9.15-4.39,12-7.4,4.32-13.37,4.32H434.2Zm-22-18.24V938.21h22V895.44h10.38l24.21,42.77h25.47L468,893.72q12.42-3.32,18.72-12A32.77,32.77,0,0,0,493,862.1,33.18,33.18,0,0,0,488.53,845a31.53,31.53,0,0,0-13.45-12.11q-9-4.47-21.7-4.47Z"/></clipPath><clipPath id="clip-path-5"><polygon points="645.05 828.46 605.1 877.68 605.1 828.46 583.09 828.46 583.09 938.21 605.1 938.21 605.1 889.31 645.05 938.21 672.87 938.21 626.33 882.86 671.61 828.46 645.05 828.46"/></clipPath><clipPath id="clip-path-6"><polygon points="757.46 828.3 757.46 938.21 821.16 938.21 821.16 920.28 779.48 920.28 779.48 891.2 816.42 891.2 816.42 873.74 779.48 873.74 779.48 846.23 821.16 846.23 821.16 828.3 757.46 828.3"/></clipPath><clipPath id="clip-path-7"><polygon points="905.44 828.46 905.44 846.23 934.68 846.23 934.68 938.21 956.7 938.21 956.7 846.23 985.95 846.23 985.95 828.46 905.44 828.46"/></clipPath><clipPath id="clip-path-8"><rect x="1072.12" y="828.46" width="22.02" height="109.75"/></clipPath><clipPath id="clip-path-9"><polygon points="1257.82 828.3 1257.82 903.78 1207.99 828.3 1185.97 828.3 1185.97 938.21 1207.99 938.21 1207.99 862.89 1257.82 938.21 1279.84 938.21 1279.84 828.3 1257.82 828.3"/></clipPath><clipPath id="clip-path-10"><path d="M1393.75,834.19a52.2,52.2,0,0,0-20.13,20,61.15,61.15,0,0,0,0,58A52.27,52.27,0,0,0,1393.75,932a57.92,57.92,0,0,0,28.71,7.16,54.9,54.9,0,0,0,25.56-5.9,53.61,53.61,0,0,0,18.63-15.65,51.69,51.69,0,0,0,9.42-21.23V877.2h-59.43V894h37.73q-2.49,12-10.53,18.64t-20.59,6.69a35.46,35.46,0,0,1-17.93-4.41,30.7,30.7,0,0,1-12-12.58,44.24,44.24,0,0,1-.06-38.05A30.38,30.38,0,0,1,1405,851.72a33.71,33.71,0,0,1,17.29-4.4A31.4,31.4,0,0,1,1437.7,851a25.57,25.57,0,0,1,10.38,10.53h25.32a46.1,46.1,0,0,0-18.86-25.4q-13.68-9-32.25-9a57.72,57.72,0,0,0-28.54,7.15"/></clipPath><clipPath id="clip-path-11"><path d="M1692.12,847h15.56q17.29,0,26.73,9.67t9.44,26.82q0,17.13-9.44,26.56t-26.73,9.44h-15.56Zm-22-18.55V938.21h38.37q17.29,0,30.42-6.75a48.71,48.71,0,0,0,20.29-19.11q7.15-12.35,7.16-28.85t-7.16-29a48.37,48.37,0,0,0-20.29-19.26q-13.11-6.76-30.42-6.76Z"/></clipPath><clipPath id="clip-path-12"><rect x="1852.97" y="828.46" width="22.02" height="109.75"/></clipPath><clipPath id="clip-path-13"><path d="M1988.9,834.19a52,52,0,0,0-20.12,20,61,61,0,0,0,0,58A52.1,52.1,0,0,0,1988.9,932a57.86,57.86,0,0,0,28.71,7.16,54.86,54.86,0,0,0,25.55-5.9,53.61,53.61,0,0,0,18.63-15.65,51.56,51.56,0,0,0,9.42-21.23V877.2h-59.42V894h37.73Q2047,906,2039,912.66t-20.58,6.69a35.44,35.44,0,0,1-17.93-4.41,30.72,30.72,0,0,1-12-12.58,44.33,44.33,0,0,1-.06-38.05,30.47,30.47,0,0,1,11.79-12.59,33.67,33.67,0,0,1,17.28-4.4,31.44,31.44,0,0,1,15.42,3.63,25.63,25.63,0,0,1,10.38,10.53h25.32a46.07,46.07,0,0,0-18.87-25.4q-13.68-9-32.25-9a57.66,57.66,0,0,0-28.53,7.15"/></clipPath><clipPath id="clip-path-14"><rect x="2157.71" y="828.46" width="22.02" height="109.75"/></clipPath><clipPath id="clip-path-15"><polygon points="2265.74 828.46 2265.74 846.23 2294.98 846.23 2294.98 938.21 2317 938.21 2317 846.23 2346.25 846.23 2346.25 828.46 2265.74 828.46"/></clipPath><clipPath id="clip-path-16"><path d="M2477.84,853.77l15.89,45.91H2462ZM2465.1,828.3l-39.46,109.91h23.11L2456,917.3h43.7l7.24,20.91h23.26L2490.74,828.3Z"/></clipPath><clipPath id="clip-path-17"><polygon points="2615.12 828.46 2615.12 938.21 2673.29 938.21 2673.29 920.76 2637.14 920.76 2637.14 828.46 2615.12 828.46"/></clipPath><clipPath id="clip-path-18"><polygon points="562.52 0 528.73 216.1 313.43 216.1 347.21 0 216 0 129.56 550.04 260.78 550.04 296.14 326.1 511.45 326.1 476.09 550.04 607.3 550.04 693.74 0 562.52 0"/></clipPath><clipPath id="clip-path-19"><path d="M924,613.3c-3.66-6-5.49-13.75-5.49-23.19q0-35.36,23.19-73.46a207.14,207.14,0,0,1,53.42-59L975.83,581.47c-2.09,12-5.78,21.87-11,29.47s-13.11,11.39-23.58,11.39q-11.79,0-17.29-9M1043.4,147,1010,361.65a404.85,404.85,0,0,0-62.85,35.17,400.64,400.64,0,0,0-50.21,40q-17.18-4.27-28-15.64-15.72-16.51-15.73-46.36a98.35,98.35,0,0,1,.79-11.39c.51-4.45,1.05-9.3,1.58-14.54L887,147H764.46L732.23,349.67q-1.56,11-2.75,23.18t-1.17,22.4q0,58.92,34.19,99.79,24,28.62,61.58,40.29a176.88,176.88,0,0,0-15.62,72.86q0,32.22,16.49,57.75t46.36,40.47q29.87,14.93,68.36,14.93,40.1,0,72.69-16.11t55-48.32q22.39-32.24,29.46-78.58L1165.19,147Z"/></clipPath><clipPath id="clip-path-20"><path d="M1388,441.61A77.18,77.18,0,0,1,1358.5,409q-10.23-20.82-10.21-47.55,0-34.56,13.75-60.89T1399,259.31a91.91,91.91,0,0,1,50.69-14.93q26.7,0,45.19,11.39a76.88,76.88,0,0,1,28.67,31.83q10.23,20.44,10.23,47.93,0,33.8-13.36,60.11t-36.15,42a87.87,87.87,0,0,1-51.07,15.71q-25.94,0-45.19-11.78m-36.13-279q-49.92,25.16-83.31,71.89t-43.61,112.76L1169.14,718.2h121l33-212.16h1.58q15.69,23.58,46.74,38.5t71.9,14.93q47.92,0,87.21-18.86a213.7,213.7,0,0,0,68-51.07,228.71,228.71,0,0,0,44-73.86,252.44,252.44,0,0,0,15.32-88q0-58.14-25.13-101a171.17,171.17,0,0,0-69.17-66q-44-23.17-103.72-23.19-58.15,0-108,25.15"/></clipPath><clipPath id="clip-path-21"><path d="M1832.3,336.71v-1.18q2.37-22,15.32-44.39a117.08,117.08,0,0,1,35-37.72,84.53,84.53,0,0,1,49.52-15.33q21.2,0,31.41,9.44t10.23,22c0,5.78-2,12.05-5.9,18.87s-10.74,13.35-20.42,19.64-23.19,12.05-40.48,17.28-39.28,9.44-66,12.57h-8.65Zm20.44-181.91a228.11,228.11,0,0,0-75.44,48.72,224.33,224.33,0,0,0-50.3,74.25q-18.06,42.84-18.06,93.9,0,59.73,27.1,99.79t74.64,59.34q47.55,19.26,108.84,19.24H2017l15.71-100.57H1925q-34.61,0-55.78-9.83t-30.66-27.1a57.87,57.87,0,0,0,9.43.78,91.1,91.1,0,0,0,11-.78,492.28,492.28,0,0,0,90.73-14.16q42.85-11,75.44-30.24t51.48-47.93q18.86-28.68,18.86-68a99.9,99.9,0,0,0-18.08-57.75q-18.09-26.31-51.47-41.65t-79.76-15.32q-50.3,0-93.49,17.29"/></clipPath><clipPath id="clip-path-22"><polygon points="51.72 106.09 34.43 216.1 183.29 216.1 200.58 106.09 51.72 106.09"/></clipPath><clipPath id="clip-path-23"><polygon points="17.29 325.97 0 435.98 149.27 435.98 166.56 325.97 17.29 325.97"/></clipPath></defs><g id="Capa_2" data-name="Capa 2"><rect x="1229.1" y="575.03" width="36" height="88.85"/><path d="M2030,8.07c52.92,19.08,102.53,38.84,149.85,62.08,47.29,22.83,92.33,49,136.34,76.23s85.68,56.92,127.15,88c20.44,15.73,40.57,31.29,59.7,47.55l8.5,7.48c-14.55,13.23-29.18,26.52-44.47,39.09-32.29,27.5-66.07,53.63-101,79.37-34.95,25.41-70.44,50.42-107.62,73.85-37.09,23.73-75.71,45.81-116.27,68.29,46.35,1.39,92.81-4.9,138.27-15.56a742.87,742.87,0,0,0,132.32-45.72,858.09,858.09,0,0,0,123.26-67.64c19.51-13.24,38.91-26.85,57.42-41.66,17.67-15,35.23-29.67,52.49-45l51.19-45.37-51.26-47.48-13.11-12.14-15.88-15.41c-10.64-10.18-21.72-19.77-33-29a786.9,786.9,0,0,0-69.5-51.26,861.79,861.79,0,0,0-150.67-80.81C2311,31.32,2255.78,15,2199.2,6.45A562.22,562.22,0,0,0,2116,0a444.3,444.3,0,0,0-86,8.07"/><g class="cls-1"><rect x="2030" width="667.17" height="551.44"/></g><polygon points="112.78 828.46 77.89 910.06 42.98 828.46 17.97 828.46 17.97 938.21 39.99 938.21 39.99 866.82 69.56 938.21 86.22 938.21 115.62 866.82 115.62 938.21 137.64 938.21 137.64 828.46 112.78 828.46"/><g class="cls-2"><rect x="17.97" y="828.46" width="119.67" height="109.75"/></g><path d="M274.91,853.77l15.88,45.91H259ZM262.16,828.3,222.71,938.21h23.1l7.25-20.91h43.7L304,938.21h23.26L287.8,828.3Z"/><g class="cls-3"><rect x="222.71" y="828.3" width="104.55" height="109.91"/></g><path d="M434.2,846.7h18.39q9,0,13.37,4.16c2.94,2.78,4.39,6.68,4.39,11.72s-1.45,9.15-4.39,12-7.4,4.32-13.37,4.32H434.2Zm-22-18.24V938.21h22V895.44h10.38l24.21,42.77h25.47L468,893.72q12.42-3.32,18.72-12A32.77,32.77,0,0,0,493,862.1,33.18,33.18,0,0,0,488.53,845a31.53,31.53,0,0,0-13.45-12.11q-9-4.47-21.7-4.47Z"/><g class="cls-4"><rect x="412.18" y="828.46" width="82.09" height="109.75"/></g><polygon points="645.05 828.46 605.1 877.68 605.1 828.46 583.09 828.46 583.09 938.21 605.1 938.21 605.1 889.31 645.05 938.21 672.87 938.21 626.33 882.86 671.61 828.46 645.05 828.46"/><g class="cls-5"><rect x="583.09" y="828.46" width="89.78" height="109.75"/></g><polygon points="757.46 828.3 757.46 938.21 821.16 938.21 821.16 920.28 779.48 920.28 779.48 891.2 816.42 891.2 816.42 873.74 779.48 873.74 779.48 846.23 821.16 846.23 821.16 828.3 757.46 828.3"/><g class="cls-6"><rect x="757.46" y="828.3" width="63.69" height="109.91"/></g><polygon points="905.44 828.46 905.44 846.23 934.68 846.23 934.68 938.21 956.7 938.21 956.7 846.23 985.95 846.23 985.95 828.46 905.44 828.46"/><g class="cls-7"><rect x="905.44" y="828.46" width="80.51" height="109.75"/></g><rect x="1072.12" y="828.46" width="22.02" height="109.75"/><g class="cls-8"><rect x="1072.12" y="828.46" width="22.02" height="109.75"/></g><polygon points="1257.82 828.3 1257.82 903.78 1207.99 828.3 1185.97 828.3 1185.97 938.21 1207.99 938.21 1207.99 862.89 1257.82 938.21 1279.84 938.21 1279.84 828.3 1257.82 828.3"/><g class="cls-9"><rect x="1185.97" y="828.3" width="93.87" height="109.91"/></g><path d="M1393.75,834.19a52.2,52.2,0,0,0-20.13,20,61.15,61.15,0,0,0,0,58A52.27,52.27,0,0,0,1393.75,932a57.92,57.92,0,0,0,28.71,7.16,54.9,54.9,0,0,0,25.56-5.9,53.61,53.61,0,0,0,18.63-15.65,51.69,51.69,0,0,0,9.42-21.23V877.2h-59.43V894h37.73q-2.49,12-10.53,18.64t-20.59,6.69a35.46,35.46,0,0,1-17.93-4.41,30.7,30.7,0,0,1-12-12.58,44.24,44.24,0,0,1-.06-38.05A30.38,30.38,0,0,1,1405,851.72a33.71,33.71,0,0,1,17.29-4.4A31.4,31.4,0,0,1,1437.7,851a25.57,25.57,0,0,1,10.38,10.53h25.32a46.1,46.1,0,0,0-18.86-25.4q-13.68-9-32.25-9a57.72,57.72,0,0,0-28.54,7.15"/><g class="cls-10"><rect x="1366.32" y="827.04" width="109.75" height="112.12"/></g><path d="M1692.12,847h15.56q17.29,0,26.73,9.67t9.44,26.82q0,17.13-9.44,26.56t-26.73,9.44h-15.56Zm-22-18.55V938.21h38.37q17.29,0,30.42-6.75a48.71,48.71,0,0,0,20.29-19.11q7.15-12.35,7.16-28.85t-7.16-29a48.37,48.37,0,0,0-20.29-19.26q-13.11-6.76-30.42-6.76Z"/><g class="cls-11"><rect x="1670.1" y="828.46" width="96.24" height="109.75"/></g><rect x="1852.97" y="828.46" width="22.02" height="109.75"/><g class="cls-12"><rect x="1852.97" y="828.46" width="22.02" height="109.75"/></g><path d="M1988.9,834.19a52,52,0,0,0-20.12,20,61,61,0,0,0,0,58A52.1,52.1,0,0,0,1988.9,932a57.86,57.86,0,0,0,28.71,7.16,54.86,54.86,0,0,0,25.55-5.9,53.61,53.61,0,0,0,18.63-15.65,51.56,51.56,0,0,0,9.42-21.23V877.2h-59.42V894h37.73Q2047,906,2039,912.66t-20.58,6.69a35.44,35.44,0,0,1-17.93-4.41,30.72,30.72,0,0,1-12-12.58,44.33,44.33,0,0,1-.06-38.05,30.47,30.47,0,0,1,11.79-12.59,33.67,33.67,0,0,1,17.28-4.4,31.44,31.44,0,0,1,15.42,3.63,25.63,25.63,0,0,1,10.38,10.53h25.32a46.07,46.07,0,0,0-18.87-25.4q-13.68-9-32.25-9a57.66,57.66,0,0,0-28.53,7.15"/><g class="cls-13"><rect x="1961.46" y="827.04" width="109.75" height="112.12"/></g><rect x="2157.71" y="828.46" width="22.02" height="109.75"/><g class="cls-14"><rect x="2157.71" y="828.46" width="22.02" height="109.75"/></g><polygon points="2265.74 828.46 2265.74 846.23 2294.98 846.23 2294.98 938.21 2317 938.21 2317 846.23 2346.25 846.23 2346.25 828.46 2265.74 828.46"/><g class="cls-15"><rect x="2265.74" y="828.46" width="80.51" height="109.75"/></g><path d="M2477.84,853.77l15.89,45.91H2462ZM2465.1,828.3l-39.46,109.91h23.11L2456,917.3h43.7l7.24,20.91h23.26L2490.74,828.3Z"/><g class="cls-16"><rect x="2425.64" y="828.3" width="104.55" height="109.91"/></g><polygon points="2615.12 828.46 2615.12 938.21 2673.29 938.21 2673.29 920.76 2637.14 920.76 2637.14 828.46 2615.12 828.46"/><g class="cls-17"><rect x="2615.12" y="828.46" width="58.17" height="109.75"/></g><polygon points="562.52 0 528.73 216.1 313.43 216.1 347.21 0 216 0 129.56 550.04 260.78 550.04 296.14 326.1 511.45 326.1 476.09 550.04 607.3 550.04 693.74 0 562.52 0"/><g class="cls-18"><rect x="129.56" width="564.18" height="550.04"/></g><path d="M924,613.3c-3.66-6-5.49-13.75-5.49-23.19q0-35.36,23.19-73.46a207.14,207.14,0,0,1,53.42-59L975.83,581.47c-2.09,12-5.78,21.87-11,29.47s-13.11,11.39-23.58,11.39q-11.79,0-17.29-9M1043.4,147,1010,361.65a404.85,404.85,0,0,0-62.85,35.17,400.64,400.64,0,0,0-50.21,40q-17.18-4.27-28-15.64-15.72-16.51-15.73-46.36a98.35,98.35,0,0,1,.79-11.39c.51-4.45,1.05-9.3,1.58-14.54L887,147H764.46L732.23,349.67q-1.56,11-2.75,23.18t-1.17,22.4q0,58.92,34.19,99.79,24,28.62,61.58,40.29a176.88,176.88,0,0,0-15.62,72.86q0,32.22,16.49,57.75t46.36,40.47q29.87,14.93,68.36,14.93,40.1,0,72.69-16.11t55-48.32q22.39-32.24,29.46-78.58L1165.19,147Z"/><g class="cls-19"><rect x="728.31" y="146.95" width="436.88" height="574.39"/></g><path d="M1388,441.61A77.18,77.18,0,0,1,1358.5,409q-10.23-20.82-10.21-47.55,0-34.56,13.75-60.89T1399,259.31a91.91,91.91,0,0,1,50.69-14.93q26.7,0,45.19,11.39a76.88,76.88,0,0,1,28.67,31.83q10.23,20.44,10.23,47.93,0,33.8-13.36,60.11t-36.15,42a87.87,87.87,0,0,1-51.07,15.71q-25.94,0-45.19-11.78m-36.13-279q-49.92,25.16-83.31,71.89t-43.61,112.76L1169.14,718.2h121l33-212.16h1.58q15.69,23.58,46.74,38.5t71.9,14.93q47.92,0,87.21-18.86a213.7,213.7,0,0,0,68-51.07,228.71,228.71,0,0,0,44-73.86,252.44,252.44,0,0,0,15.32-88q0-58.14-25.13-101a171.17,171.17,0,0,0-69.17-66q-44-23.17-103.72-23.19-58.15,0-108,25.15"/><g class="cls-20"><rect x="1169.14" y="137.51" width="488.74" height="580.69"/></g><path d="M1832.3,336.71v-1.18q2.37-22,15.32-44.39a117.08,117.08,0,0,1,35-37.72,84.53,84.53,0,0,1,49.52-15.33q21.2,0,31.41,9.44t10.23,22c0,5.78-2,12.05-5.9,18.87s-10.74,13.35-20.42,19.64-23.19,12.05-40.48,17.28-39.28,9.44-66,12.57h-8.65Zm20.44-181.91a228.11,228.11,0,0,0-75.44,48.72,224.33,224.33,0,0,0-50.3,74.25q-18.06,42.84-18.06,93.9,0,59.73,27.1,99.79t74.64,59.34q47.55,19.26,108.84,19.24H2017l15.71-100.57H1925q-34.61,0-55.78-9.83t-30.66-27.1a57.87,57.87,0,0,0,9.43.78,91.1,91.1,0,0,0,11-.78,492.28,492.28,0,0,0,90.73-14.16q42.85-11,75.44-30.24t51.48-47.93q18.86-28.68,18.86-68a99.9,99.9,0,0,0-18.08-57.75q-18.09-26.31-51.47-41.65t-79.76-15.32q-50.3,0-93.49,17.29"/><g class="cls-21"><rect x="1708.94" y="137.51" width="386.6" height="412.53"/></g><polygon points="51.72 106.09 34.43 216.1 183.29 216.1 200.58 106.09 51.72 106.09"/><g class="cls-22"><rect x="34.43" y="106.09" width="166.15" height="110.01"/></g><polygon points="17.29 325.97 0 435.98 149.27 435.98 166.56 325.97 17.29 325.97"/><g class="cls-23"><rect y="325.97" width="166.56" height="110.01"/></g></g></svg>