<svg id="Capa_1" data-name="Capa 1" xmlns="http://www.w3.org/2000/svg" viewBox="0 0 841.89 595.28"><path d="M430.89,418.69l-32.21-23.46C422,352.39,446,310,461.81,263.56c-36.23,32.08-67.14,69-99.22,105.68-3-2.17-6.15-4.45-9.31-6.67-7.35-5.16-14.66-10.38-22.12-15.38-2.73-1.82-3.23-3.78-2-6.66,6.76-15.94,13-32.14,20.28-47.82a569.51,569.51,0,0,1,67.78-110c24.69-31.56,53.42-58.69,87.32-80.18a5.28,5.28,0,0,1,4.75.22C541.7,126.42,574,150.31,606.42,174c3.8,2.77,4.37,5.11,3,9.61-12.18,40.27-31.7,76.76-56.71,110.35A657.25,657.25,0,0,1,432.14,418a10.67,10.67,0,0,1-1.25.67m80-274.35c-33.82-.09-60.52,25.73-60.72,58.71A60.16,60.16,0,0,0,510.46,264c32.65.07,59.56-26.49,59.65-58.87.1-34-25.88-60.68-59.23-60.76"/><path d="M361.91,227c-18.78,32-35.41,64.47-48.54,99-15.65-8.7-32.05-10.29-48.4-4.13-8.82,3.32-16.87,8.93-24.91,14s-16.35,2.47-17.64-6.34a11.17,11.17,0,0,1,1.43-7.13c13.57-20.83,27.42-41.49,41.06-62.28,14.82-22.59,35.25-36,62.42-38.36A73.92,73.92,0,0,1,361.91,227"/><path d="M459.34,422.14l74.94-73.91c11.57,14.75,17.82,31.89,17.35,51.45-.53,22.35-11.47,39.68-25.89,55.61-14.58,16.12-28.79,32.58-43.13,48.91-4.42,5-10,6.2-14.64,3-4.93-3.4-6.11-9-3-15,5.67-11.06,9.93-22.45,9.23-35.18-.63-11.41-4.82-21.41-11.65-30.42-1.23-1.62-2.39-3.29-3.2-4.41"/><path d="M327.68,456,340,450c-1.93,18.56-11.14,32.39-24.92,44.14,15.94-3.52,32.77-13.59,39.9-43,4.19,3,8.29,5.9,12.24,8.95a3.12,3.12,0,0,1,.93,2.75c-5.31,12.27-9.5,25.65-21.31,33.3-10.1,6.56-21.18,11.67-32.09,16.87C298,521,281,528.5,263.71,536.39c1.79-9.75,3.82-19.32,5.26-29,1.82-12.3,3.27-24.66,4.7-37,2.09-18.09,9.25-33.52,23.24-45.53,3.34-2.87,6.44-6,10-9.4l15,11.3c-20.54,10.56-32.06,26.35-30.71,51.27,7.93-18.3,18.9-32.18,37.77-38.52-.43,5.41-.83,10.52-1.3,16.5"/><path d="M611.58,58.88C620.3,92,622.05,124.64,616,158.7L523,90.2c27.75-16.53,57.21-25.76,88.6-31.32"/><path d="M431.1,444.66c-3.39,4.83-6.44,9.55-9.86,14-5.93,7.71-14.08,9.29-22,3.69-26.22-18.6-52.25-37.45-78.37-56.18q-12.87-9.24-25.82-18.36c-8.53-6-10-12.69-4.29-21.44,3.34-5.1,7.28-9.8,11.18-15l54.42,39.3c-1.87,5.67-1.76,10.59,2.21,14.56s9.45,3.25,13.73,1.55,6.34-.46,9.43,1.83c14.79,11,29.79,21.63,44.7,32.42,1.52,1.1,3,2.3,4.64,3.62"/><path d="M510.72,158.55a45.85,45.85,0,0,1,45.59,46.2c-.2,24.85-20.85,45-46,44.91s-46.07-21-45.81-45.63c.27-25.91,20.21-45.54,46.19-45.48m-1.05,76.36c17.68.41,31.59-12.81,31.93-30.34.32-17-13.09-31.29-29.73-31.75-18.42-.5-32.37,12.47-32.75,30.44-.37,17.59,12.8,31.23,30.55,31.65"/></svg>